<?xml version="1.0" encoding="UTF-8"?>
<svg id="Layer_1" data-name="Layer 1" xmlns="http://www.w3.org/2000/svg" viewBox="0 0 69 69">
  <defs>
    <style>
      .cls-1, .cls-2 {
        fill: #e50b0b;
      }

      .cls-2 {
        opacity: .24;
      }
    </style>
  </defs>
  <rect class="cls-2" x="3.85" y="3.85" width="61.29" height="61.29" rx="13.18" ry="13.18"/>
  <g id="SVGRepo_iconCarrier" data-name="SVGRepo iconCarrier">
    <path class="cls-1" d="M31.34,43.97c-.87,0-1.58-.71-1.58-1.58v-9.47c0-.87,.71-1.58,1.58-1.58s1.58,.71,1.58,1.58v9.47c0,.87-.71,1.58-1.58,1.58Z"/>
    <path class="cls-1" d="M37.66,43.97c-.87,0-1.58-.71-1.58-1.58v-9.47c0-.87,.71-1.58,1.58-1.58s1.58,.71,1.58,1.58v9.47c0,.87-.71,1.58-1.58,1.58Z"/>
    <path class="cls-1" d="M47.13,28.19H21.87c-.87,0-1.58-.71-1.58-1.58s.71-1.58,1.58-1.58h25.25c.87,0,1.58,.71,1.58,1.58s-.71,1.58-1.58,1.58Z"/>
    <path class="cls-1" d="M39.24,50.28h-9.47c-3.48,0-6.31-2.83-6.31-6.31V26.61c0-.87,.71-1.58,1.58-1.58h18.94c.87,0,1.58,.71,1.58,1.58v17.36c0,3.48-2.83,6.31-6.31,6.31Zm-12.63-22.1v15.78c0,1.74,1.42,3.16,3.16,3.16h9.47c1.74,0,3.16-1.42,3.16-3.16v-15.78h-15.78Z"/>
    <path class="cls-1" d="M39.24,28.19h-9.47c-.87,0-1.58-.71-1.58-1.58v-3.16c0-2.61,2.12-4.74,4.74-4.74h3.16c2.61,0,4.74,2.12,4.74,4.74v3.16c0,.87-.71,1.58-1.58,1.58Zm-7.89-3.16h6.31v-1.58c0-.87-.71-1.58-1.58-1.58h-3.16c-.87,0-1.58,.71-1.58,1.58v1.58Z"/>
  </g>
</svg>