<?xml version="1.0" encoding="utf-8"?>
<!-- Generator: Adobe Illustrator 27.0.0, SVG Export Plug-In . SVG Version: 6.00 Build 0)  -->
<svg version="1.1" id="Layer_1" xmlns="http://www.w3.org/2000/svg" xmlns:xlink="http://www.w3.org/1999/xlink" x="0px" y="0px"
	 viewBox="0 0 69 69" style="enable-background:new 0 0 69 69;" xml:space="preserve">
<style type="text/css">
	.st0{opacity:0.24;fill:#0000FF;enable-background:new    ;}
	.st1{opacity:0.93;}
	.st2{fill-rule:evenodd;clip-rule:evenodd;fill:#010107;}
</style>
<path class="st0" d="M17,3.9H52c7.3,0,13.2,5.9,13.2,13.2V52c0,7.3-5.9,13.2-13.2,13.2H17C9.8,65.2,3.9,59.2,3.9,52V17
	C3.9,9.8,9.8,3.9,17,3.9z"/>
<g class="st1">
	<path class="st2" d="M34.5,29.6c-2.7,0-4.9,2.2-4.9,4.9s2.2,4.9,4.9,4.9s4.9-2.2,4.9-4.9S37.2,29.6,34.5,29.6z M32.9,34.5
		c0-0.9,0.7-1.6,1.6-1.6s1.6,0.7,1.6,1.6s-0.7,1.6-1.6,1.6S32.9,35.4,32.9,34.5z"/>
	<path class="st2" d="M50.5,33.3c-3.7-6.7-9.8-10.2-16-10.2s-12.3,3.5-16,10.2c-0.4,0.7-0.4,1.5,0,2.1c3.7,6.8,9.8,10.4,16,10.4
		s12.3-3.6,16-10.4C50.8,34.8,50.8,34,50.5,33.3L50.5,33.3z M34.5,42.6c-4.8,0-9.7-2.7-12.9-8.2c3.2-5.5,8.1-8,12.9-8
		s9.7,2.6,12.9,8C44.2,40,39.3,42.6,34.5,42.6z"/>
</g>
</svg>
