<?xml version="1.0" encoding="UTF-8"?>
<svg id="Layer_1" data-name="Layer 1" xmlns="http://www.w3.org/2000/svg" viewBox="0 0 69 69">
  <defs>
    <style>
      .cls-1, .cls-2 {
        fill: #13c9f6;
      }

      .cls-2 {
        opacity: .24;
      }
    </style>
  </defs>
  <rect class="cls-2" x="3.85" y="3.85" width="61.29" height="61.29" rx="13.18" ry="13.18"/>
  <g id="SVGRepo_iconCarrier" data-name="SVGRepo iconCarrier">
    <g id="Complete">
      <g id="edit">
        <g>
          <path class="cls-1" d="M43.15,50.37H22.96c-2.39,0-4.33-1.94-4.33-4.33V25.85c0-2.39,1.94-4.33,4.33-4.33h5.77c.8,0,1.44,.65,1.44,1.44s-.65,1.44-1.44,1.44h-5.77c-.8,0-1.44,.65-1.44,1.44v20.19c0,.8,.65,1.44,1.44,1.44h20.19c.8,0,1.44-.65,1.44-1.44v-5.77c0-.8,.65-1.44,1.44-1.44s1.44,.65,1.44,1.44v5.77c0,2.39-1.94,4.33-4.33,4.33Z"/>
          <path class="cls-1" d="M28.73,41.71c-.39,0-.76-.16-1.03-.43-.29-.29-.44-.7-.41-1.1l.43-6.49c.02-.35,.17-.68,.42-.92l13.7-13.7c.27-.27,.64-.42,1.02-.42s.75,.15,1.02,.42l6.06,6.06c.56,.56,.56,1.47,0,2.03l-13.7,13.85c-.26,.26-.6,.41-.96,.43l-6.49,.29s-.04,0-.06,0Zm6.49-1.73h0Zm-4.65-5.57l-.29,4.34,4.32-.19,12.3-12.43-4.02-4.02-12.3,12.3Z"/>
        </g>
      </g>
    </g>
  </g>
</svg>